<svg xmlns="http://www.w3.org/2000/svg" viewBox="0 0 116.72 156.24"><defs><style>.cls-1{fill:#fff;}</style></defs><title>Ship</title><g id="Layer_2" data-name="Layer 2"><g id="Layer_1-2" data-name="Layer 1"><path class="cls-1" d="M73.67,141.6c14.44,5.75,14.52,12.36,27.94,14.53a7.78,7.78,0,0,0,2.68,0,14.71,14.71,0,0,0,10.42-7.38C126,134.38,86.41,24.79,70.68,5.79l-.15-.18a16,16,0,0,0-24.34,0L46,5.79C30.31,24.79-9.33,134.38,2,148.73a14.77,14.77,0,0,0,10.43,7.39,8,8,0,0,0,2.67,0c13.41-2.17,13.5-8.78,27.94-14.53A41.43,41.43,0,0,1,73.67,141.6Z"/></g></g></svg>