<svg xmlns="http://www.w3.org/2000/svg" viewBox="0 0 128.99 128.99"><defs><style>.cls-1{fill:#fff;}</style></defs><title>Square Orb</title><g id="Layer_2" data-name="Layer 2"><g id="Layer_1-2" data-name="Layer 1"><path class="cls-1" d="M128.51,23.73l-5.33,23.83a90.48,90.48,0,0,0,.53,41.75l3.6,14.39a19.46,19.46,0,0,1-23.61,23.61l-14.39-3.6a90.48,90.48,0,0,0-41.75-.53l-23.83,5.33A19.47,19.47,0,0,1,.48,105.26L5.81,81.43a90.44,90.44,0,0,0-.53-41.74l-3.6-14.4A19.46,19.46,0,0,1,25.29,1.68l14.4,3.6a90.44,90.44,0,0,0,41.74.53L105.26.48A19.47,19.47,0,0,1,128.51,23.73Z"/></g></g></svg>