<svg xmlns="http://www.w3.org/2000/svg" viewBox="0 0 131.72 131.72"><defs><style>.cls-1{fill:#fff;}</style></defs><title>Static Enemy</title><g id="Layer_2" data-name="Layer 2"><g id="Layer_1-2" data-name="Layer 1"><polygon class="cls-1" points="72.35 0 60.4 10.41 46.65 2.53 39.6 16.72 23.88 14.7 22.79 30.51 7.5 34.66 12.54 49.69 0 59.37 10.41 71.32 2.53 85.07 16.72 92.12 14.7 107.84 30.51 108.93 34.66 124.22 49.69 119.18 59.37 131.72 71.32 121.31 85.07 129.19 92.12 115 107.84 117.02 108.93 101.21 124.22 97.06 119.18 82.03 131.72 72.35 121.31 60.4 129.19 46.65 115 39.6 117.02 23.88 101.21 22.79 97.06 7.5 82.03 12.54 72.35 0"/></g></g></svg>